<svg width="48" height="48" viewBox="0 0 48 48" fill="none" xmlns="http://www.w3.org/2000/svg">
<g clip-path="url(#clip0_2456_6052)">
<path d="M33.0068 7C38.5297 7 43.0068 11.4772 43.0068 17V23H39.0068V17C39.0068 13.6863 36.3205 11 33.0068 11H9V37H33.001V41H7C5.89543 41 5 40.1046 5 39V9C5 7.89543 5.89543 7 7 7H33.0068Z" fill="white"/>
<path d="M39.5596 25.4463C39.6919 25.0115 40.3081 25.0115 40.4404 25.4463L42.0283 30.665C42.073 30.8117 42.1883 30.927 42.335 30.9717L47.5537 32.5596C47.9885 32.6919 47.9885 33.3081 47.5537 33.4404L42.335 35.0283C42.1883 35.073 42.073 35.1883 42.0283 35.335L40.4404 40.5537C40.3081 40.9885 39.6919 40.9885 39.5596 40.5537L37.9717 35.335C37.927 35.1883 37.8117 35.073 37.665 35.0283L32.4463 33.4404C32.0115 33.3081 32.0115 32.6919 32.4463 32.5596L37.665 30.9717C37.8117 30.927 37.927 30.8117 37.9717 30.665L39.5596 25.4463Z" fill="white"/>
<path d="M17.6777 22.8164C18.3095 22.5652 19.0115 22.535 19.667 22.7363L33.001 26.832V31.0166L18.8828 26.6787L11.9805 30.2373V25.7373L17.4121 22.9375L17.6777 22.8164Z" fill="white"/>
<path d="M16.5 16C17.8807 16 19 17.1193 19 18.5C19 19.8807 17.8807 21 16.5 21C15.1193 21 14 19.8807 14 18.5C14 17.1193 15.1193 16 16.5 16Z" fill="white"/>
</g>
<defs>
<clipPath id="clip0_2456_6052">
<rect width="47.9999" height="47.9999" fill="white"/>
</clipPath>
</defs>
</svg>
